<svg xmlns="http://www.w3.org/2000/svg" version="1.1" xmlns:xlink="http://www.w3.org/1999/xlink" xmlns:svgjs="http://svgjs.dev/svgjs" width="1500" height="553" viewBox="0 0 1500 553"><g transform="matrix(1,0,0,1,-0.9090909090909918,-0.07688485352974794)"><svg viewBox="0 0 396 146" data-background-color="#ffffff" preserveAspectRatio="xMidYMid meet" height="553" width="1500" xmlns="http://www.w3.org/2000/svg" xmlns:xlink="http://www.w3.org/1999/xlink"><g id="tight-bounds" transform="matrix(1,0,0,1,0.2400000000000091,0.020298713590136686)"><svg viewBox="0 0 395.52 145.95940257281973" height="145.95940257281973" width="395.52"><g><svg viewBox="0 0 552.3767918981532 203.8445250317183" height="145.95940257281973" width="395.52"><g><rect width="9.590399004400444" height="148.23715459976617" x="122.16063633773068" y="27.80368521597606" fill="#056af6" opacity="1" stroke-width="0" stroke="transparent" fill-opacity="1" class="rect-yte-0" data-fill-palette-color="primary" rx="1%" id="yte-0" data-palette-color="#056af6"></rect></g><g transform="matrix(1,0,0,1,156.85679189815323,28.17243435677149)"><svg viewBox="0 0 395.52 147.4996563181753" height="147.4996563181753" width="395.52"><g id="textblocktransform"><svg viewBox="0 0 395.52 147.4996563181753" height="147.4996563181753" width="395.52" id="textblock"><g><svg viewBox="0 0 395.52 106.34607734806632" height="106.34607734806632" width="395.52"><g transform="matrix(1,0,0,1,0,0)"><svg width="395.52" viewBox="3.95 -36.05 135.74 36.5" height="106.34607734806632" data-palette-color="#056af6"><g class="wordmark-text-0" data-fill-palette-color="primary" id="text-0"><path d="M24.8-6.1L24.8-6.1Q24.55-5.85 24.1-5.68 23.65-5.5 23.13-5.35 22.6-5.2 22.05-5.13 21.5-5.05 21.05-5.05L21.05-5.05 10.2-31.25Q9.85-27.35 9.53-23.33 9.2-19.3 8.93-15.38 8.65-11.45 8.43-7.68 8.2-3.9 8.05-0.45L8.05-0.45Q7.3 0 6.18 0.18 5.05 0.35 3.95 0.35L3.95 0.35Q5-8.35 6.2-17.3 7.4-26.25 8.65-35.1L8.65-35.1Q9.35-35.5 10.5-35.77 11.65-36.05 12.65-36.05L12.65-36.05 23.55-9.1Q26.1-15.5 28.78-22.1 31.45-28.7 34-35.25L34-35.25Q34.8-35.65 35.88-35.85 36.95-36.05 37.95-36.05L37.95-36.05 42.15-0.4Q41.45 0 40.3 0.18 39.15 0.35 38.05 0.35L38.05 0.35 34.5-30.55Q32-24.3 29.53-18.1 27.05-11.9 24.8-6.1ZM47.15 0.35L47.15 0.35Q48.8-3.85 50.65-8.63 52.5-13.4 54.37-18.13 56.25-22.85 58.02-27.28 59.8-31.7 61.2-35.25L61.2-35.25Q62.05-35.65 63.05-35.85 64.05-36.05 65.05-36.05L65.05-36.05 78.3-0.2Q77.85 0.05 77.05 0.23 76.25 0.4 75.15 0.4L75.15 0.4Q74.9 0.4 74.67 0.4 74.45 0.4 74.2 0.35L74.2 0.35 70.3-10.25 54.3-10.25Q52.55-4.9 51.2-0.05L51.2-0.05Q50.75 0.2 50.02 0.33 49.3 0.45 48.55 0.45L48.55 0.45Q48.1 0.45 47.75 0.43 47.4 0.4 47.15 0.35ZM69.45-12.65L62.25-32.35Q60.5-27.8 58.67-22.78 56.85-17.75 55.1-12.65L55.1-12.65 69.45-12.65ZM89.59-36.05L89.59-1.85Q93.65-2 98-2.25 102.34-2.5 107.8-2.85L107.8-2.85Q107.7-1.7 107.25-0.83 106.8 0.05 106.25 0.35L106.25 0.35 85.5 0.35 85.5-35.15Q87.2-36.05 89.59-36.05L89.59-36.05ZM111.89-35.95L139.69-35.95Q139.59-34.95 139.17-34.05 138.74-33.15 138.24-32.75L138.24-32.75Q135.99-32.95 132.94-33.27 129.89-33.6 127.09-33.85L127.09-33.85 127.09-0.45Q126.29 0 125.22 0.18 124.14 0.35 122.99 0.35L122.99 0.35 122.99-33.85Q121.49-33.7 119.74-33.52 117.99-33.35 116.29-33.2 114.59-33.05 113.07-32.93 111.54-32.8 110.49-32.75L110.49-32.75Q110.59-33.85 110.97-34.68 111.34-35.5 111.89-35.95L111.89-35.95Z" fill="#056af6" data-fill-palette-color="primary"></path></g></svg></g></svg></g><g transform="matrix(1,0,0,1,0,131.45183390408843)"><svg viewBox="0 0 232.20979199999996 16.0478224140869" height="16.0478224140869" width="232.20979199999996"><g transform="matrix(1,0,0,1,0,0)"><svg width="232.20979199999996" viewBox="5 -36 528.1 36.5" height="16.0478224140869" data-palette-color="#4b91f1"><path d="M18.5 0L5 0 5-35 17.5-35Q23.75-35 26.63-32.38 29.5-29.75 29.5-25.65L29.5-25.65Q29.5-22.95 28-21.03 26.5-19.1 24.3-18.25L24.3-18.25Q27.4-17.55 29.2-15.43 31-13.3 31-9.9L31-9.9Q31-7.05 29.75-4.83 28.5-2.6 25.75-1.3 23 0 18.5 0L18.5 0ZM9.7-16.05L9.7-4.1 18.5-4.1Q23-4.1 24.65-5.73 26.3-7.35 26.3-10.05L26.3-10.05Q26.3-12.8 24.65-14.43 23-16.05 18.45-16.05L18.45-16.05 9.7-16.05ZM9.7-30.9L9.7-19.95 17.5-19.95Q21.7-19.95 23.25-21.5 24.8-23.05 24.8-25.45L24.8-25.45Q24.8-27.9 23.25-29.4 21.7-30.9 17.5-30.9L17.5-30.9 9.7-30.9ZM41.9 0L37.5 0 37.5-26.5 41.6-26.5 41.6-21.5Q42.2-23.1 43.25-24.33 44.3-25.55 45.82-26.28 47.35-27 49.25-27L49.25-27Q50.25-27 50.87-26.9 51.5-26.8 52-26.65L52-26.65 52-22.55Q51.35-22.8 50.72-22.9 50.1-23 49-23L49-23Q47-23 45.4-22.05 43.8-21.1 42.85-19.43 41.9-17.75 41.9-15.5L41.9-15.5 41.9 0ZM67.5 0.5L67.5 0.5Q64.15 0.5 61.22-0.95 58.3-2.4 56.52-5.4 54.75-8.4 54.75-13L54.75-13 54.75-14Q54.75-18.4 56.45-21.28 58.15-24.15 60.95-25.58 63.75-27 67-27L67-27Q72.84-27 76.05-23.8 79.25-20.6 79.25-14.75L79.25-14.75 79.25-11.95 59.15-11.95Q59.15-8.85 60.42-7 61.7-5.15 63.62-4.33 65.55-3.5 67.5-3.5L67.5-3.5Q70.5-3.5 72.12-4.5 73.75-5.5 74.45-7.25L74.45-7.25 78.75-7.25Q77.95-3.45 74.82-1.48 71.7 0.5 67.5 0.5ZM67.25-23L67.25-23Q65.2-23 63.35-22.23 61.5-21.45 60.32-19.8 59.15-18.15 59.15-15.55L59.15-15.55 75.09-15.55Q75.05-18.3 73.97-19.93 72.9-21.55 71.15-22.28 69.4-23 67.25-23ZM94.14 0L89.74 0 82.49-26.5 87.29-26.5 92.39-6 99.29-26.5 103.19-26.5 110.34-6 115.39-26.5 119.99-26.5 112.74 0 108.34 0 101.14-20.5 94.14 0ZM135.99 0.5L135.99 0.5Q132.64 0.5 129.72-0.95 126.79-2.4 125.02-5.4 123.24-8.4 123.24-13L123.24-13 123.24-14Q123.24-18.4 124.94-21.28 126.64-24.15 129.44-25.58 132.24-27 135.49-27L135.49-27Q141.34-27 144.54-23.8 147.74-20.6 147.74-14.75L147.74-14.75 147.74-11.95 127.64-11.95Q127.64-8.85 128.92-7 130.19-5.15 132.12-4.33 134.04-3.5 135.99-3.5L135.99-3.5Q138.99-3.5 140.62-4.5 142.24-5.5 142.94-7.25L142.94-7.25 147.24-7.25Q146.44-3.45 143.31-1.48 140.19 0.5 135.99 0.5ZM135.74-23L135.74-23Q133.69-23 131.84-22.23 129.99-21.45 128.81-19.8 127.64-18.15 127.64-15.55L127.64-15.55 143.59-15.55Q143.54-18.3 142.47-19.93 141.39-21.55 139.64-22.28 137.89-23 135.74-23ZM163.24 0.5L163.24 0.5Q159.99 0.5 157.49-1 154.99-2.5 153.61-5.5 152.24-8.5 152.24-13L152.24-13 152.24-14Q152.24-18.2 153.66-21.1 155.09-24 157.56-25.5 160.04-27 163.24-27L163.24-27Q166.44-27 168.81-25.6 171.19-24.2 172.34-21.75L172.34-21.75 172.34-35 176.74-35 176.74 0 172.64 0 172.64-5Q171.64-2.55 169.14-1.03 166.64 0.5 163.24 0.5ZM164.24-3.4L164.24-3.4Q166.64-3.4 168.46-4.42 170.29-5.45 171.31-7.28 172.34-9.1 172.34-11.5L172.34-11.5 172.34-15.5Q172.34-17.65 171.31-19.38 170.29-21.1 168.46-22.1 166.64-23.1 164.24-23.1L164.24-23.1Q161.04-23.1 158.84-20.73 156.64-18.35 156.64-14L156.64-14 156.64-13Q156.64-8.3 158.84-5.85 161.04-3.4 164.24-3.4ZM203.13 0L198.73 0 198.73-22.6 194.98-22.6 194.98-26.5 198.73-26.5 198.73-27Q198.73-29.8 199.58-31.63 200.43-33.45 202.21-34.35 203.98-35.25 206.73-35.25L206.73-35.25Q207.48-35.25 208.43-35.23 209.38-35.2 210.48-35.1L210.48-35.1 210.48-31.1Q209.73-31.2 208.86-31.23 207.98-31.25 207.23-31.25L207.23-31.25Q204.93-31.25 204.03-30.33 203.13-29.4 203.13-27L203.13-27 203.13-26.5 209.98-26.5 209.98-22.6 203.13-22.6 203.13 0ZM225.98 0.5L225.98 0.5Q222.63 0.5 219.71-0.98 216.78-2.45 215.01-5.45 213.23-8.45 213.23-13L213.23-13 213.23-14Q213.23-18.3 215.01-21.2 216.78-24.1 219.71-25.55 222.63-27 225.98-27L225.98-27Q229.38-27 232.28-25.55 235.18-24.1 236.96-21.2 238.73-18.3 238.73-14L238.73-14 238.73-13Q238.73-8.45 236.96-5.45 235.18-2.45 232.28-0.98 229.38 0.5 225.98 0.5ZM225.98-3.5L225.98-3.5Q228.03-3.5 229.91-4.42 231.78-5.35 233.01-7.45 234.23-9.55 234.23-13L234.23-13 234.23-14Q234.23-17.2 233.01-19.18 231.78-21.15 229.91-22.08 228.03-23 225.98-23L225.98-23Q223.98-23 222.08-22.08 220.18-21.15 218.96-19.18 217.73-17.2 217.73-14L217.73-14 217.73-13Q217.73-9.55 218.96-7.45 220.18-5.35 222.08-4.42 223.98-3.5 225.98-3.5ZM249.38 0L244.98 0 244.98-26.5 249.08-26.5 249.08-21.5Q249.68-23.1 250.73-24.33 251.78-25.55 253.3-26.28 254.83-27 256.73-27L256.73-27Q257.73-27 258.35-26.9 258.98-26.8 259.48-26.65L259.48-26.65 259.48-22.55Q258.83-22.8 258.2-22.9 257.58-23 256.48-23L256.48-23Q254.48-23 252.88-22.05 251.28-21.1 250.33-19.43 249.38-17.75 249.38-15.5L249.38-15.5 249.38 0ZM291.47 0L277.97 0 277.97-35 290.47-35Q296.72-35 299.6-32.38 302.47-29.75 302.47-25.65L302.47-25.65Q302.47-22.95 300.97-21.03 299.47-19.1 297.27-18.25L297.27-18.25Q300.37-17.55 302.17-15.43 303.97-13.3 303.97-9.9L303.97-9.9Q303.97-7.05 302.72-4.83 301.47-2.6 298.72-1.3 295.97 0 291.47 0L291.47 0ZM282.67-16.05L282.67-4.1 291.47-4.1Q295.97-4.1 297.62-5.73 299.27-7.35 299.27-10.05L299.27-10.05Q299.27-12.8 297.62-14.43 295.97-16.05 291.42-16.05L291.42-16.05 282.67-16.05ZM282.67-30.9L282.67-19.95 290.47-19.95Q294.67-19.95 296.22-21.5 297.77-23.05 297.77-25.45L297.77-25.45Q297.77-27.9 296.22-29.4 294.67-30.9 290.47-30.9L290.47-30.9 282.67-30.9ZM318.47 0.25L318.47 0.25Q315.72 0.25 314-0.63 312.27-1.5 311.5-3.38 310.72-5.25 310.72-8.25L310.72-8.25 310.72-35 315.12-35 315.12-8.25Q315.12-5.65 315.97-4.7 316.82-3.75 318.97-3.75L318.97-3.75Q319.52-3.75 319.92-3.78 320.32-3.8 320.72-3.85L320.72-3.85 320.72 0.05Q320.47 0.1 320.05 0.15 319.62 0.2 319.2 0.23 318.77 0.25 318.47 0.25ZM336.97 0.5L336.97 0.5Q333.62 0.5 330.69-0.98 327.77-2.45 325.99-5.45 324.22-8.45 324.22-13L324.22-13 324.22-14Q324.22-18.3 325.99-21.2 327.77-24.1 330.69-25.55 333.62-27 336.97-27L336.97-27Q340.37-27 343.27-25.55 346.17-24.1 347.94-21.2 349.72-18.3 349.72-14L349.72-14 349.72-13Q349.72-8.45 347.94-5.45 346.17-2.45 343.27-0.98 340.37 0.5 336.97 0.5ZM336.97-3.5L336.97-3.5Q339.02-3.5 340.89-4.42 342.77-5.35 343.99-7.45 345.22-9.55 345.22-13L345.22-13 345.22-14Q345.22-17.2 343.99-19.18 342.77-21.15 340.89-22.08 339.02-23 336.97-23L336.97-23Q334.97-23 333.07-22.08 331.17-21.15 329.94-19.18 328.72-17.2 328.72-14L328.72-14 328.72-13Q328.72-9.55 329.94-7.45 331.17-5.35 333.07-4.42 334.97-3.5 336.97-3.5ZM366.22 0.5L366.22 0.5Q362.82 0.5 360.09-0.98 357.37-2.45 355.79-5.45 354.22-8.45 354.22-13L354.22-13 354.22-14Q354.22-18.3 355.92-21.2 357.62-24.1 360.37-25.55 363.12-27 366.22-27L366.22-27Q369.37-27 371.64-25.88 373.92-24.75 375.32-22.83 376.72-20.9 377.22-18.5L377.22-18.5 372.72-18.5Q371.92-20.4 370.49-21.7 369.07-23 366.22-23L366.22-23Q364.27-23 362.57-22.08 360.87-21.15 359.79-19.18 358.72-17.2 358.72-14L358.72-14 358.72-13Q358.72-9.6 359.79-7.5 360.87-5.4 362.57-4.45 364.27-3.5 366.22-3.5L366.22-3.5Q368.67-3.5 370.34-4.7 372.02-5.9 372.72-8L372.72-8 377.22-8Q376.62-5.4 375.07-3.48 373.52-1.55 371.27-0.53 369.02 0.5 366.22 0.5ZM387.61 0L383.21 0 383.21-35 387.61-35 387.61-14.3 399.81-26.5 405.21-26.5 394.21-15.55 406.21 0 400.61 0 391.06-12.5 387.61-9.25 387.61 0ZM420.71 0.5L420.71 0.5Q417.31 0.5 414.59-0.98 411.86-2.45 410.29-5.45 408.71-8.45 408.71-13L408.71-13 408.71-14Q408.71-18.3 410.41-21.2 412.11-24.1 414.86-25.55 417.61-27 420.71-27L420.71-27Q423.86-27 426.14-25.88 428.41-24.75 429.81-22.83 431.21-20.9 431.71-18.5L431.71-18.5 427.21-18.5Q426.41-20.4 424.99-21.7 423.56-23 420.71-23L420.71-23Q418.76-23 417.06-22.08 415.36-21.15 414.29-19.18 413.21-17.2 413.21-14L413.21-14 413.21-13Q413.21-9.6 414.29-7.5 415.36-5.4 417.06-4.45 418.76-3.5 420.71-3.5L420.71-3.5Q423.16-3.5 424.84-4.7 426.51-5.9 427.21-8L427.21-8 431.71-8Q431.11-5.4 429.56-3.48 428.01-1.55 425.76-0.53 423.51 0.5 420.71 0.5ZM442.11 0L437.71 0 437.71-35 442.11-35 442.11-21.75Q442.81-23.15 444.01-24.35 445.21-25.55 446.93-26.28 448.66-27 450.86-27L450.86-27Q455.86-27 458.28-24.33 460.71-21.65 460.71-16.5L460.71-16.5 460.71 0 456.31 0 456.31-15.5Q456.31-19.2 454.76-21.1 453.21-23 449.56-23L449.56-23Q446.96-23 445.31-21.9 443.66-20.8 442.88-19.1 442.11-17.4 442.11-15.5L442.11-15.5 442.11 0ZM476.01 0.5L476.01 0.5Q473.11 0.5 471.08-0.58 469.06-1.65 468.01-3.53 466.96-5.4 466.96-7.75L466.96-7.75Q466.96-11.7 469.28-13.45 471.61-15.2 475.96-15.2L475.96-15.2 484.56-15.2 484.56-17Q484.56-20.4 483.03-21.7 481.51-23 478.46-23L478.46-23Q475.61-23 474.31-21.93 473.01-20.85 472.86-19.5L472.86-19.5 468.46-19.5Q468.61-21.65 469.91-23.33 471.21-25 473.46-26 475.71-27 478.71-27L478.71-27Q481.86-27 484.16-26.03 486.46-25.05 487.71-22.98 488.96-20.9 488.96-17.5L488.96-17.5 488.96-6.75Q488.96-4.65 488.98-3.08 489.01-1.5 489.21 0L489.21 0 485.36 0Q485.21-1.15 485.16-2.18 485.11-3.2 485.11-4.5L485.11-4.5Q484.06-2.4 481.71-0.95 479.36 0.5 476.01 0.5ZM476.96-3.5L476.96-3.5Q479.06-3.5 480.78-4.25 482.51-5 483.53-6.45 484.56-7.9 484.56-10L484.56-10 484.56-11.8 476.71-11.8Q474.26-11.8 472.86-10.83 471.46-9.85 471.46-7.75L471.46-7.75Q471.46-5.9 472.78-4.7 474.11-3.5 476.96-3.5ZM501.6 0L497.2 0 497.2-26.5 501.6-26.5 501.6 0ZM499.4-30L499.4-30Q498.1-30 497.25-30.85 496.4-31.7 496.4-33L496.4-33Q496.4-34.3 497.25-35.15 498.1-36 499.4-36L499.4-36Q500.7-36 501.55-35.15 502.4-34.3 502.4-33L502.4-33Q502.4-31.7 501.55-30.85 500.7-30 499.4-30ZM514.5 0L510.1 0 510.1-26.5 514.2-26.5 514.2-21.5Q515.1-23.7 517.38-25.35 519.65-27 523.25-27L523.25-27Q528.25-27 530.68-24.33 533.1-21.65 533.1-16.5L533.1-16.5 533.1 0 528.7 0 528.7-15.5Q528.7-19.2 527.15-21.1 525.6-23 521.95-23L521.95-23Q519.35-23 517.7-21.9 516.05-20.8 515.27-19.1 514.5-17.4 514.5-15.5L514.5-15.5 514.5 0Z" opacity="1" transform="matrix(1,0,0,1,0,0)" fill="#4b91f1" class="slogan-text-1" data-fill-palette-color="secondary" id="text-1"></path></svg></g></svg></g></svg></g></svg></g><g><svg viewBox="0 0 97.05487978170858 203.8445250317183" height="203.8445250317183" width="97.05487978170858"><g><svg xmlns="http://www.w3.org/2000/svg" xmlns:xlink="http://www.w3.org/1999/xlink" version="1.1" x="0" y="0" viewBox="149.8 5.7 132.59999999999997 278.5" enable-background="new 0 0 432 288" xml:space="preserve" height="203.8445250317183" width="97.05487978170858" class="icon-icon-0" data-fill-palette-color="accent" id="icon-0"><g fill="#4b91f1" data-fill-palette-color="accent"><path d="M149.8 156.7L208.6 257.8H213.2V261.5H172.9V205.3L164 190V277.3H166.6V281.3H162V284.2H174.7V281.3H170.1V277.3H173V267.2H216C213.8 267.2 212 269 212 271.2S213.8 275.2 216 275.2 220 273.4 220 271.2 218.2 267.2 216 267.2H259.5V277.3H262.4V281.3H257.8V284.2H270.2V281.3H265.6V277.3H268.2V190L259.6 205.3V261.5H219V257.8H223.6L282.4 156.7V155.8H149.8z" fill="#4b91f1" data-fill-palette-color="accent"></path><path d="M275.9 35.1C275.9 30.5 271.3 26.5 263.8 23.3V11.5C263.8 8.3 261.2 5.7 258 5.7H224.6C221.4 5.7 218.8 8.3 218.8 11.5V15.8H213V11.5C213 8.3 210.4 5.7 207.2 5.7H174C170.8 5.7 168.2 8.3 168.2 11.5V23.3C160.7 26.5 156.4 30.5 156.4 35.1 156.4 35.7 154.7 37.1 152.9 38.3H279.3C277.9 37.2 275.9 35.7 275.9 35.1M207.4 16.1C194.4 16.7 182.9 18.4 174 21.3V11.5H207.4zM258 21C249.1 18.1 237.6 16.4 224.6 15.8V11.5H258z" fill="#4b91f1" data-fill-palette-color="accent"></path><rect x="149.8" y="42.3" width="132.5" height="109.4" fill="#4b91f1" data-fill-palette-color="accent"></rect></g></svg></g></svg></g></svg></g><defs></defs></svg><rect width="395.52" height="145.95940257281973" fill="none" stroke="none" visibility="hidden"></rect></g></svg></g></svg>